# xmcd
#
# Track frame offsets: 
#        150
#        19286
#        37703
#        58105
#
# Disc length: 1183 seconds
#
# Revision: 0
# Processed by: cddbd v1.5.2PL0 Copyright (c) Steve Scherf et al.
# Submitted via: ExactAudioCopy v1.3
#
DISCID=29049d04
DTITLE=Chicago Dime - Woman Like That
DYEAR=2018
DGENRE=Memphis Blues
TTITLE0=Mercy
TTITLE1=Deptford Blues
TTITLE2=The Big Game
TTITLE3=I Put A Spell On You (feat. Dario Ogrin)
EXTD=
EXTT0=
EXTT1=
EXTT2=
EXTT3=
PLAYORDER=
